# This file uses centimeters as units for non-parametric coordinates.

mtllib Ground.mtl
g default
v -385.787903 -13.623911 243.051483
v -166.374146 -13.623911 243.051483
v -385.787903 -13.623911 23.637726
v -166.374146 -13.623911 23.637726
v -166.343704 -11.638353 176.937653
v 121.475891 0.500000 176.936951
v -166.343704 -11.638353 -176.937653
v 121.475891 0.500000 -176.936951
v -166.343704 -11.638353 10.214274
v -166.343704 -11.638353 -10.214274
v 121.476028 0.500000 -10.214274
v 121.476028 0.500000 10.214274
v -0.179496 0.500000 176.936951
v -0.179496 0.500000 10.214278
v -0.179496 0.500000 -10.214278
v -0.179496 0.500000 -176.936951
v -68.605042 0.500000 176.936951
v -68.605042 0.500000 10.214276
v -68.605042 0.500000 -10.214276
v -68.605042 0.500000 -176.936951
v -9.511069 0.500000 176.936951
v -9.511069 0.500000 20.916681
v -9.511069 0.500000 -20.916681
v -9.511069 0.500000 -176.936951
v -37.275520 0.500000 176.936951
v -37.275520 0.500000 20.916681
v -37.275520 0.500000 -20.916681
v -37.275520 0.500000 -176.936951
v 53.283070 0.500000 176.936951
v 53.283070 0.500000 -176.936951
v 85.515305 0.500000 10.214276
v 85.515305 0.500000 -10.214276
v 121.476028 0.500000 62.496723
v 85.515305 0.500000 62.496723
v -0.179496 0.500000 62.496723
v -9.511069 0.500000 62.496784
v -37.275520 0.500000 62.496784
v -68.605042 0.500000 62.496723
v -166.343704 -11.638353 109.695778
v 121.475891 0.500000 96.412132
v -0.179496 0.500000 96.412132
v -9.511069 0.500000 96.412163
v -37.275520 0.500000 96.412163
v -68.605042 0.500000 96.412132
v -166.343704 -11.638353 145.662384
v 121.476028 0.500000 -62.496723
v 85.515305 0.500000 -62.496723
v -0.179496 0.500000 -62.496723
v -9.511069 0.500000 -62.496784
v -37.275520 0.500000 -62.496784
v -68.605042 0.500000 -62.496723
v -166.343704 -11.638353 -109.695778
v 121.475891 0.500000 -96.412132
v -0.179496 0.500000 -96.412132
v -9.511069 0.500000 -96.412163
v -37.275520 0.500000 -96.412163
v -68.605042 0.500000 -96.412132
v -166.343704 -11.638353 -145.662384
v 53.283070 0.500000 16.721575
v 46.775772 0.500000 10.214276
v 53.283070 0.500000 -16.721575
v 46.775772 0.500000 -10.214276
v 53.283070 0.500000 55.989429
v 46.775772 0.500000 62.496723
v 46.775772 0.500000 96.412132
v 53.283070 0.500000 102.919434
v 59.790371 0.500000 96.412132
v 46.775772 0.500000 -62.496723
v 53.283070 0.500000 -55.989429
v 46.775772 0.500000 -96.412132
v 59.790371 0.500000 -96.412132
v 53.283070 0.500000 -102.919434
v 82.290131 0.500000 176.936905
v 82.290131 0.500000 96.412132
v 85.515305 0.500000 93.186958
v 82.290131 0.500000 -176.936905
v 82.290131 0.500000 -96.412132
v 85.515305 0.500000 -93.186958
v -0.179496 -0.072351 10.214278
v -0.179496 -0.072351 -10.214278
v 46.775772 -1.485557 10.214276
v 46.775772 -1.485557 -10.214276
v -68.605042 -0.072351 10.214276
v -68.605042 -0.072351 -10.214276
v -37.275520 -0.072351 20.916681
v -37.275520 -0.072351 -20.916681
v -9.511069 -0.072351 20.916681
v -9.511069 -0.072351 -20.916681
v 59.790371 -1.485557 -10.214276
v 59.790371 -1.485557 10.214276
v 85.515305 -1.485557 10.214276
v 85.515305 -1.485557 -10.214276
v 59.790371 -1.485557 -62.496723
v 53.283070 -1.485557 -55.989429
v 53.283070 -1.485557 -16.721575
v 59.790371 -1.485557 62.496723
v 59.790371 -1.485557 96.412132
v 82.290131 -1.485558 96.412132
v 85.515305 -1.485558 93.186958
v 85.515305 -1.485557 62.496723
v 46.775772 -1.485557 96.412132
v -0.179496 -1.485557 96.412132
v 46.775772 -1.485557 62.496723
v -0.179496 -1.485557 62.496723
v -9.511069 -1.485557 96.412163
v -9.511069 -1.485557 62.496784
v -37.275520 -1.485557 96.412163
v -37.275520 -1.485557 62.496784
v -68.605042 -1.485557 96.412132
v -68.605042 -1.485557 62.496723
v -166.343704 -13.623911 145.662384
v -166.343704 -13.623911 109.695778
v 59.790371 -1.485557 -96.412132
v 85.515305 -1.485557 -62.496723
v 85.515305 -1.485558 -93.186958
v 82.290131 -1.485558 -96.412132
v 46.775772 -1.485557 -62.496723
v -0.179496 -1.485557 -62.496723
v 46.775772 -1.485557 -96.412132
v -0.179496 -1.485557 -96.412132
v -9.511069 -1.485557 -62.496784
v -9.511069 -1.485557 -96.412163
v -37.275520 -1.485557 -62.496784
v -37.275520 -1.485557 -96.412163
v -68.605042 -1.485557 -62.496723
v -68.605042 -1.485557 -96.412132
v -166.343704 -13.623911 -109.695778
v -166.343704 -13.623911 -145.662384
v 53.283070 -1.485557 55.989429
v 53.283070 -1.485557 16.721575
vt 0.024302 0.033816
vt 0.306499 0.033816
vt 0.024302 0.316013
vt 0.306499 0.316013
vt 0.542680 0.666946
vt 0.542680 0.762464
vt 0.323134 0.848694
vt 0.323134 0.666946
vt 0.542680 0.325028
vt 0.542680 0.472143
vt 0.323134 0.382165
vt 0.323134 0.325026
vt 0.323134 0.629623
vt 0.542680 0.629623
vt 0.816472 0.325028
vt 0.816472 0.460255
vt 0.801855 0.472143
vt 0.696381 0.472143
vt 0.696381 0.325028
vt 0.696381 0.666946
vt 0.696381 0.629623
vt 0.801855 0.629623
vt 0.801855 0.666946
vt 0.613054 0.325028
vt 0.613054 0.472143
vt 0.542680 0.666946
vt 0.542680 0.629623
vt 0.613054 0.610071
vt 0.613054 0.686499
vt 0.613054 0.686499
vt 0.613054 0.762464
vt 0.675420 0.472143
vt 0.675420 0.325028
vt 0.675420 0.686499
vt 0.675420 0.610071
vt 0.696381 0.666946
vt 0.696381 0.762464
vt 0.675420 0.762464
vt 0.675420 0.686499
vt 0.881629 0.325028
vt 0.881629 0.472143
vt 0.831089 0.472143
vt 0.831089 0.666946
vt 0.831089 0.629623
vt 0.888873 0.629623
vt 0.888873 0.666946
vt 0.831089 0.762464
vt 0.816472 0.750575
vt 0.816472 0.678834
vt 0.888873 0.666946
vt 0.888873 0.629623
vt 0.969651 0.629623
vt 0.969651 0.666946
vt 0.969651 0.762464
vt 0.888873 0.762464
vt 0.969651 0.534105
vt 0.888873 0.534105
vt 0.696381 0.534105
vt 0.801855 0.534105
vt 0.816472 0.545994
vt 0.816472 0.617735
vt 0.801855 0.629623
vt 0.696381 0.629623
vt 0.675420 0.534105
vt 0.675420 0.610071
vt 0.613054 0.534105
vt 0.613054 0.610071
vt 0.542680 0.534105
vt 0.323134 0.447875
vt 0.969650 0.472143
vt 0.888873 0.478036
vt 0.831089 0.534105
vt 0.831089 0.472143
vt 0.881629 0.472143
vt 0.888873 0.478036
vt 0.888873 0.534105
vt 0.696381 0.472143
vt 0.801855 0.472143
vt 0.801855 0.534105
vt 0.696381 0.534105
vt 0.675420 0.472143
vt 0.675420 0.534105
vt 0.613054 0.472143
vt 0.613054 0.534105
vt 0.542680 0.472143
vt 0.542680 0.534105
vt 0.323134 0.382165
vt 0.323134 0.447875
vt 0.969650 0.824426
vt 0.888873 0.818533
vt 0.831089 0.824426
vt 0.888873 0.762464
vt 0.888873 0.818533
vt 0.881629 0.824426
vt 0.696381 0.762464
vt 0.801855 0.762464
vt 0.801855 0.824426
vt 0.696381 0.824426
vt 0.675420 0.762464
vt 0.675420 0.824426
vt 0.613054 0.762464
vt 0.613054 0.824426
vt 0.542680 0.762464
vt 0.542680 0.824426
vt 0.323134 0.848694
vt 0.323134 0.914404
vt 0.696381 0.824426
vt 0.801855 0.824426
vt 0.816472 0.836314
vt 0.816472 0.971541
vt 0.696381 0.971541
vt 0.675420 0.824426
vt 0.675420 0.971541
vt 0.613054 0.824426
vt 0.613054 0.971541
vt 0.542680 0.824426
vt 0.542680 0.971541
vt 0.323134 0.914404
vt 0.323134 0.971543
vt 0.801855 0.666946
vt 0.816472 0.678834
vt 0.816472 0.750575
vt 0.801855 0.762464
vt 0.816472 0.545994
vt 0.816472 0.617735
vt 0.831089 0.824426
vt 0.881629 0.971541
vt 0.881629 0.824426
vt 0.969650 0.325028
vt 0.969650 0.971541
vn 0.000000 1.000000 0.000000
vn 0.000000 1.000000 0.000000
vn 0.000000 1.000000 0.000000
vn 0.000000 1.000000 0.000000
vn -0.109874 0.993945 0.000000
vn -0.106970 0.994262 0.000000
vn -0.123245 0.992376 0.000000
vn -0.123245 0.992376 0.000000
vn -0.084656 0.996410 0.000000
vn -0.074824 0.997197 0.000000
vn -0.123245 0.992376 0.000000
vn -0.123245 0.992376 0.000000
vn -0.123245 0.992376 0.000000
vn -0.109874 0.993945 0.000000
vn 0.000000 1.000000 0.000000
vn 0.000000 1.000000 0.000000
vn 0.000000 1.000000 0.000000
vn 0.000000 1.000000 0.000000
vn 0.000000 1.000000 0.000000
vn 0.020505 0.999790 0.000000
vn 0.020505 0.999790 0.000000
vn 0.023159 0.999732 0.000000
vn 0.023159 0.999732 0.000000
vn 0.000000 1.000000 0.000000
vn 0.000000 1.000000 0.000000
vn -0.000000 1.000000 0.000000
vn -0.000000 1.000000 0.000000
vn -0.000000 1.000000 0.000000
vn -0.000000 1.000000 0.000000
vn 0.000000 1.000000 0.000000
vn 0.000000 1.000000 0.000000
vn 0.000000 1.000000 0.000000
vn 0.000000 1.000000 0.000000
vn -0.000000 1.000000 0.000000
vn -0.000000 1.000000 0.000000
vn 0.000000 1.000000 0.000000
vn 0.000000 1.000000 0.000000
vn 0.000000 1.000000 0.000000
vn 0.000000 1.000000 0.000000
vn 0.000000 1.000000 0.000000
vn 0.000000 1.000000 0.000000
vn 0.000000 1.000000 0.000000
vn 0.000000 1.000000 0.000000
vn 0.000000 1.000000 0.000000
vn 0.000000 1.000000 0.000000
vn 0.000000 1.000000 0.000000
vn 0.000000 1.000000 -0.000000
vn 0.000000 1.000000 0.000000
vn 0.000000 1.000000 0.000000
vn 0.000000 1.000000 0.000000
vn 0.000000 1.000000 0.000000
vn 0.000000 1.000000 0.000000
vn 0.000000 1.000000 0.000000
vn 0.000000 1.000000 0.000000
vn 0.000000 1.000000 0.000000
vn 0.000000 1.000000 0.000000
vn 0.000000 1.000000 0.000000
vn 0.000000 1.000000 0.000000
vn 0.000000 1.000000 0.000000
vn 0.000000 1.000000 0.000000
vn 0.000000 1.000000 0.000000
vn 0.000000 1.000000 0.000000
vn 0.000000 1.000000 0.000000
vn 0.000000 1.000000 0.000000
vn 0.000000 1.000000 0.000000
vn 0.000000 1.000000 0.000000
vn 0.000000 1.000000 0.000000
vn -0.106970 0.994262 0.000000
vn -0.123245 0.992376 0.000000
vn 0.000000 1.000000 0.000000
vn 0.000000 1.000000 0.000000
vn 0.000000 1.000000 0.000000
vn 0.000000 1.000000 0.000000
vn 0.000000 1.000000 0.000000
vn 0.000000 1.000000 0.000000
vn 0.000000 1.000000 0.000000
vn 0.000000 1.000000 0.000000
vn 0.000000 1.000000 0.000000
vn 0.000000 1.000000 0.000000
vn 0.000000 1.000000 0.000000
vn 0.000000 1.000000 0.000000
vn 0.000000 1.000000 0.000000
vn 0.000000 1.000000 0.000000
vn 0.000000 1.000000 0.000000
vn -0.099638 0.995024 0.000000
vn -0.086232 0.996275 0.000000
vn -0.123245 0.992376 0.000000
vn -0.123245 0.992376 0.000000
vn 0.000000 1.000000 0.000000
vn 0.000000 1.000000 0.000000
vn 0.000000 1.000000 -0.000000
vn 0.000000 1.000000 -0.000000
vn 0.000000 1.000000 -0.000000
vn 0.000000 1.000000 -0.000000
vn 0.000000 1.000000 0.000000
vn 0.000000 1.000000 0.000000
vn 0.000000 1.000000 0.000000
vn 0.000000 1.000000 0.000000
vn 0.000000 1.000000 0.000000
vn 0.000000 1.000000 0.000000
vn 0.000000 1.000000 0.000000
vn 0.000000 1.000000 0.000000
vn -0.086232 0.996275 0.000000
vn -0.099638 0.995024 0.000000
vn -0.123245 0.992376 0.000000
vn -0.123245 0.992376 0.000000
vn 0.000000 1.000000 0.000000
vn 0.000000 1.000000 0.000000
vn 0.000000 1.000000 0.000000
vn 0.000000 1.000000 0.000000
vn 0.000000 1.000000 0.000000
vn 0.000000 1.000000 0.000000
vn 0.000000 1.000000 0.000000
vn 0.000000 1.000000 0.000000
vn 0.000000 1.000000 0.000000
vn -0.074824 0.997197 0.000000
vn -0.084656 0.996410 0.000000
vn -0.123245 0.992376 0.000000
vn -0.123245 0.992376 0.000000
vn 0.000000 1.000000 0.000000
vn 0.000000 1.000000 0.000000
vn 0.000000 1.000000 0.000000
vn 0.000000 1.000000 0.000000
vn 0.000000 1.000000 0.000000
vn 0.000000 1.000000 0.000000
vn 0.000000 1.000000 0.000000
vn 0.000000 1.000000 0.000000
vn 0.000000 1.000000 0.000000
vn 0.000000 1.000000 0.000000
vn 0.000000 1.000000 0.000000
vn -0.000000 0.000000 -1.000000
vn -0.000000 0.000000 -1.000000
vn -0.000000 0.000000 -1.000000
vn -0.000000 0.000000 -1.000000
vn -0.000000 0.000000 1.000000
vn -0.000000 0.000000 1.000000
vn -0.000000 0.000000 1.000000
vn -0.000000 0.000000 1.000000
vn 1.000000 0.000000 0.000000
vn 1.000000 0.000000 0.000000
vn 1.000000 0.000000 0.000000
vn 1.000000 0.000000 0.000000
vn 0.323266 0.000000 -0.946308
vn 0.323266 0.000000 -0.946308
vn 0.323266 0.000000 -0.946308
vn 0.323266 0.000000 -0.946308
vn 0.323266 0.000000 0.946308
vn 0.323266 0.000000 0.946308
vn 0.323266 0.000000 0.946308
vn 0.323266 0.000000 0.946308
vn -0.753728 0.000000 -0.657186
vn -0.753728 0.000000 -0.657186
vn -0.753728 0.000000 -0.657186
vn -0.753728 0.000000 -0.657186
vn -0.753728 0.000000 0.657186
vn -0.753728 0.000000 0.657186
vn -0.753728 0.000000 0.657186
vn -0.753728 0.000000 0.657186
vn 0.000000 0.000000 -1.000000
vn 0.000000 0.000000 -1.000000
vn 0.000000 0.000000 -1.000000
vn 0.000000 0.000000 -1.000000
vn 0.000000 0.000000 1.000000
vn 0.000000 0.000000 1.000000
vn 0.000000 0.000000 1.000000
vn 0.000000 0.000000 1.000000
vn -1.000000 0.000000 0.000000
vn -1.000000 0.000000 0.000000
vn -1.000000 0.000000 0.000000
vn -1.000000 0.000000 0.000000
vn 1.000000 0.000000 0.000000
vn 1.000000 0.000000 0.000000
vn 1.000000 0.000000 0.000000
vn 1.000000 0.000000 0.000000
vn 0.000000 0.000000 -1.000000
vn 0.000000 0.000000 -1.000000
vn 0.000000 0.000000 -1.000000
vn 0.000000 0.000000 -1.000000
vn -0.707106 0.000000 -0.707107
vn -0.707106 0.000000 -0.707107
vn -0.707106 0.000000 -0.707107
vn -0.707106 0.000000 -0.707107
vn -1.000000 0.000000 0.000000
vn -1.000000 0.000000 0.000000
vn -1.000000 0.000000 0.000000
vn -1.000000 0.000000 0.000000
vn -0.000001 0.000000 -1.000000
vn 0.000000 0.000000 -1.000000
vn 0.000000 0.000000 -1.000000
vn -0.000001 0.000000 -1.000000
vn 0.000000 0.000000 1.000000
vn 0.000001 0.000000 1.000000
vn 0.000001 0.000000 1.000000
vn 0.000000 0.000000 1.000000
vn -0.000001 0.000000 -1.000000
vn -0.000001 0.000000 -1.000000
vn 0.000002 0.000000 1.000000
vn 0.000002 0.000000 1.000000
vn 0.000001 0.000000 -1.000000
vn 0.000001 0.000000 -1.000000
vn -0.000001 0.000000 1.000000
vn -0.000001 0.000000 1.000000
vn -0.350880 0.000000 -0.936420
vn -0.361538 0.000000 -0.932358
vn 0.337919 0.000000 0.941175
vn 0.348380 0.000000 0.937353
vn -0.449996 0.000000 -0.893031
vn -0.449996 0.000000 -0.893031
vn 0.434860 0.000000 0.900498
vn 0.434860 0.000000 0.900498
vn -1.000000 0.000000 0.000000
vn -1.000000 0.000000 0.000000
vn -1.000000 0.000000 0.000000
vn -1.000000 0.000000 0.000000
vn -0.707106 0.000000 0.707107
vn -0.707106 0.000000 0.707107
vn -0.707106 0.000000 0.707107
vn -0.707106 0.000000 0.707107
vn 0.000000 0.000000 1.000000
vn 0.000000 0.000000 1.000000
vn 0.000000 0.000000 1.000000
vn 0.000000 0.000000 1.000000
vn 0.000001 0.000000 -1.000000
vn 0.000000 0.000000 -1.000000
vn 0.000000 0.000000 -1.000000
vn 0.000001 0.000000 -1.000000
vn 0.000000 0.000000 1.000000
vn -0.000001 0.000000 1.000000
vn -0.000001 0.000000 1.000000
vn 0.000000 0.000000 1.000000
vn 0.000002 0.000000 -1.000000
vn 0.000002 0.000000 -1.000000
vn -0.000001 0.000000 1.000000
vn -0.000001 0.000000 1.000000
vn -0.000001 0.000000 -1.000000
vn -0.000001 0.000000 -1.000000
vn 0.000001 0.000000 1.000000
vn 0.000001 0.000000 1.000000
vn 0.337919 0.000000 -0.941175
vn 0.348380 0.000000 -0.937353
vn -0.350880 0.000000 0.936420
vn -0.361537 0.000000 0.932358
vn 0.434860 0.000000 -0.900498
vn 0.434860 0.000000 -0.900498
vn -0.449996 0.000000 0.893031
vn -0.449996 0.000000 0.893031
vn 1.000000 0.000000 0.000000
vn 1.000000 0.000000 0.000000
vn 1.000000 0.000000 0.000000
vn 1.000000 0.000000 0.000000
vn 0.707107 0.000000 -0.707107
vn 0.707107 0.000000 -0.707107
vn 0.707107 0.000000 -0.707107
vn 0.707107 0.000000 -0.707107
vn 0.707107 0.000000 0.707107
vn 0.707107 0.000000 0.707107
vn 0.707107 0.000000 0.707107
vn 0.707107 0.000000 0.707107
vn 0.707107 0.000000 0.707107
vn 0.707107 0.000000 0.707107
vn 0.707107 0.000000 0.707107
vn 0.707107 0.000000 0.707107
vn 0.707107 0.000000 -0.707107
vn 0.707107 0.000000 -0.707107
vn 0.707107 0.000000 -0.707107
vn 0.707107 0.000000 -0.707107
s off
g ground
usemtl initialShadingGroup
f 1/1/1 2/2/2 4/4/3 3/3/4
s 1
f 19/5/5 51/6/6 52/7/7 10/8/8
s 2
f 17/9/9 44/10/10 45/11/11 5/12/12
s 1
f 10/8/8 9/13/13 18/14/14 19/5/5
s 2
f 29/15/15 66/16/16 65/17/17 41/18/18 13/19/19
s 4
f 80/20/20 79/21/21 81/22/22 82/23/23
s 2
f 25/24/24 43/25/25 44/10/10 17/9/9
s 4
f 84/26/26 83/27/27 85/28/28 86/29/29
s 1
f 27/30/30 50/31/31 51/6/6 19/5/5
s 2
f 13/19/19 41/18/18 42/32/32 21/33/33
s 4
f 88/34/34 87/35/35 79/21/21 80/20/20
s 1
f 15/36/36 48/37/37 49/38/38 23/39/39
s 2
f 21/33/33 42/32/32 43/25/25 25/24/24
s 4
f 86/29/29 85/28/28 87/35/35 88/34/34
s 1
f 23/39/39 49/38/38 50/31/31 27/30/30
s 2
f 73/40/40 74/41/41 67/42/42
s 4
f 89/43/43 90/44/44 91/45/45 92/46/46
f 89/43/43 93/47/47 94/48/48 95/49/49
s 2
f 32/50/50 31/51/51 12/52/52 11/53/53
f 11/53/53 46/54/54 47/55/55 32/50/50
f 33/56/56 12/52/52 31/51/51 34/57/57
s 1
f 35/58/58 64/59/59 63/60/60 59/61/61 60/62/62 14/63/63
f 36/64/64 35/58/58 14/63/63 22/65/65
f 37/66/66 36/64/64 22/65/65 26/67/67
f 38/68/68 37/66/66 26/67/67 18/14/14
f 39/69/69 38/68/68 18/14/14 9/13/13
s 2
f 40/70/70 33/56/56 34/57/57 75/71/71
s 4
f 96/72/72 97/73/73 98/74/74 99/75/75 100/76/76
f 102/77/77 101/78/78 103/79/79 104/80/80
f 105/81/81 102/77/77 104/80/80 106/82/82
f 107/83/83 105/81/81 106/82/82 108/84/84
f 109/85/85 107/83/83 108/84/84 110/86/86
f 111/87/87 109/85/85 110/86/86 112/88/88
s 2
f 46/54/54 53/89/89 78/90/90 47/55/55
s 4
f 113/91/91 93/47/47 114/92/92 115/93/93 116/94/94
f 118/95/95 117/96/96 119/97/97 120/98/98
f 121/99/99 118/95/95 120/98/98 122/100/100
f 123/101/101 121/99/99 122/100/100 124/102/102
f 125/103/103 123/101/101 124/102/102 126/104/104
f 127/105/105 125/103/103 126/104/104 128/106/106
s 2
f 54/107/107 70/108/108 72/109/109 30/110/110 16/111/111
f 55/112/112 54/107/107 16/111/111 24/113/113
f 56/114/114 55/112/112 24/113/113 28/115/115
f 57/116/116 56/114/114 28/115/115 20/117/117
f 58/118/118 57/116/116 20/117/117 7/119/119
s 1
f 62/120/120 61/121/121 69/122/122 68/123/123 48/37/37 15/36/36
s 4
f 129/124/124 96/72/72 90/44/44 130/125/125
s 2
f 72/109/109 71/126/126 76/127/127 30/110/110
s 4
f 81/22/22 90/44/44 89/43/43 82/23/23
f 96/72/72 103/79/79 101/78/78 97/73/73
f 117/96/96 93/47/47 113/91/91 119/97/97
f 130/125/125 90/44/44 81/22/22
f 95/49/49 82/23/23 89/43/43
f 96/72/72 129/124/124 103/79/79
s 2
f 65/17/17 66/16/16 67/42/42
s 4
f 117/96/96 94/48/48 93/47/47
s 2
f 70/108/108 71/126/126 72/109/109
s 4
f 90/44/44 96/72/72 100/76/76 91/45/45
f 92/46/46 114/92/92 93/47/47 89/43/43
s 2
f 77/128/128 76/127/127 71/126/126
f 73/40/40 67/42/42 66/16/16 29/15/15
f 73/40/40 6/129/129 40/70/70 74/41/41
f 8/130/130 76/127/127 77/128/128 53/89/89
f 74/41/41 40/70/70 75/71/71
f 77/128/128 78/90/90 53/89/89
s off
f 14/63/131 60/62/132 81/22/133 79/21/134
f 62/120/135 15/36/136 80/20/137 82/23/138
f 19/5/139 18/14/140 83/27/141 84/26/142
f 18/14/143 26/67/144 85/28/145 83/27/146
f 27/30/147 19/5/148 84/26/149 86/29/150
f 22/65/151 14/63/152 79/21/153 87/35/154
f 15/36/155 23/39/156 88/34/157 80/20/158
f 26/67/159 22/65/160 87/35/161 85/28/162
f 23/39/163 27/30/164 86/29/165 88/34/166
s 14
f 31/51/167 32/50/168 92/46/169 91/45/170
s off
f 69/122/171 61/121/172 95/49/173 94/48/174
s 15
f 67/42/175 74/41/176 98/74/177 97/73/178
s off
f 74/41/179 75/71/180 99/75/181 98/74/182
s 14
f 75/71/183 34/57/184 100/76/185 99/75/186
s 15
f 41/18/187 65/17/188 101/78/189 102/77/190
s 16
f 64/59/191 35/58/192 104/80/193 103/79/194
s 15
f 42/32/195 41/18/187 102/77/190 105/81/196
s 16
f 35/58/192 36/64/197 106/82/198 104/80/193
s 15
f 43/25/199 42/32/195 105/81/196 107/83/200
s 16
f 36/64/197 37/66/201 108/84/202 106/82/198
s 15
f 44/10/203 43/25/199 107/83/200 109/85/204
s 16
f 37/66/201 38/68/205 110/86/206 108/84/202
s 15
f 45/11/207 44/10/203 109/85/204 111/87/208
s 16
f 38/68/205 39/69/209 112/88/210 110/86/206
s 14
f 47/55/211 78/90/212 115/93/213 114/92/214
s off
f 78/90/215 77/128/216 116/94/217 115/93/218
s 17
f 77/128/219 71/126/220 113/91/221 116/94/222
s 18
f 48/37/223 68/123/224 117/96/225 118/95/226
s 17
f 70/108/227 54/107/228 120/98/229 119/97/230
s 18
f 49/38/231 48/37/223 118/95/226 121/99/232
s 17
f 54/107/228 55/112/233 122/100/234 120/98/229
s 18
f 50/31/235 49/38/231 121/99/232 123/101/236
s 17
f 55/112/233 56/114/237 124/102/238 122/100/234
s 18
f 51/6/239 50/31/235 123/101/236 125/103/240
s 17
f 56/114/237 57/116/241 126/104/242 124/102/238
s 18
f 52/7/243 51/6/239 125/103/240 127/105/244
s 17
f 57/116/241 58/118/245 128/106/246 126/104/242
s off
f 59/61/247 63/60/248 129/124/249 130/125/250
s 15
f 65/17/188 67/42/175 97/73/178 101/78/189
s 17
f 71/126/220 70/108/227 119/97/230 113/91/221
s off
f 60/62/251 59/61/252 130/125/253 81/22/254
f 61/121/255 62/120/256 82/23/257 95/49/258
f 63/60/259 64/59/260 103/79/261 129/124/262
f 68/123/263 69/122/264 94/48/265 117/96/266
s 14
f 34/57/184 31/51/167 91/45/170 100/76/185
f 32/50/168 47/55/211 114/92/214 92/46/169
