# This file uses centimeters as units for non-parametric coordinates.

mtllib Enemy ranged.mtl
g default
v -0.569139 -0.161524 -0.347832
v -0.319921 -0.161524 -0.618793
v -0.569139 0.161524 -0.347832
v -0.319921 0.161524 -0.618793
v -1.113223 0.161524 -0.939386
v -0.864005 0.161524 -1.210347
v -1.113223 -0.161524 -0.939386
v -0.864005 -0.161524 -1.210347
v -0.319921 -0.161524 0.618793
v -0.569139 -0.161524 0.347832
v -0.319921 0.161524 0.618793
v -0.569139 0.161524 0.347832
v -0.864005 0.161524 1.210347
v -1.113223 0.161524 0.939386
v -0.864005 -0.161524 1.210347
v -1.113223 -0.161524 0.939386
v 0.569139 -0.161524 0.347832
v 0.319921 -0.161524 0.618793
v 0.569139 0.161524 0.347832
v 0.319921 0.161524 0.618793
v 1.113223 0.161524 0.939386
v 0.864005 0.161524 1.210347
v 1.113223 -0.161524 0.939386
v 0.864005 -0.161524 1.210347
v 0.707107 -0.446792 -0.768799
v 0.000000 -0.446792 -1.087245
v -0.707107 -0.446792 -0.768799
v -1.000000 -0.446792 -0.000000
v -0.707107 -0.446792 0.768799
v 0.000000 -0.446792 1.087246
v 0.707107 -0.446792 0.768799
v 1.000000 -0.446792 -0.000000
v 0.707107 0.446792 -0.768799
v 0.000000 0.446792 -1.087245
v -0.707107 0.446792 -0.768799
v -1.000000 0.446792 -0.000000
v -0.707107 0.446792 0.768799
v 0.000000 0.446792 1.087246
v 0.707107 0.446792 0.768799
v 1.000000 0.446792 -0.000000
v 0.000000 -0.446792 -0.000000
v 0.000000 0.446792 -0.000000
v 0.319921 -0.161524 -0.618793
v 0.569139 -0.161524 -0.347832
v 0.319921 0.161524 -0.618793
v 0.569139 0.161524 -0.347832
v 0.864005 0.161524 -1.210347
v 1.113223 0.161524 -0.939386
v 0.864005 -0.161524 -1.210347
v 1.113223 -0.161524 -0.939386
v -0.351140 -0.296519 0.543623
v 0.351140 -0.296519 0.543623
v -0.351140 0.296519 0.543623
v 0.351140 0.296519 0.543623
v -0.351140 0.296519 -1.792754
v -0.351140 -0.296519 -1.792754
v 0.351140 0.296519 -1.792754
v 0.351140 -0.296519 -1.792754
v -0.175552 0.296519 -1.983642
v 0.175552 0.296519 -1.983642
v 0.175552 -0.296519 -1.983642
v -0.175552 -0.296519 -1.983642
vt 0.375000 0.000000
vt 0.625000 0.000000
vt 0.375000 0.250000
vt 0.625000 0.250000
vt 0.375000 0.500000
vt 0.625000 0.500000
vt 0.375000 0.750000
vt 0.625000 0.750000
vt 0.375000 1.000000
vt 0.625000 1.000000
vt 0.875000 0.000000
vt 0.875000 0.250000
vt 0.125000 0.000000
vt 0.125000 0.250000
vt 0.375000 0.000000
vt 0.625000 0.000000
vt 0.625000 0.250000
vt 0.375000 0.250000
vt 0.625000 0.500000
vt 0.375000 0.500000
vt 0.625000 0.750000
vt 0.375000 0.750000
vt 0.625000 1.000000
vt 0.375000 1.000000
vt 0.875000 0.000000
vt 0.875000 0.250000
vt 0.125000 0.000000
vt 0.125000 0.250000
vt 0.375000 0.000000
vt 0.625000 0.000000
vt 0.625000 0.250000
vt 0.375000 0.250000
vt 0.625000 0.500000
vt 0.375000 0.500000
vt 0.625000 0.750000
vt 0.375000 0.750000
vt 0.625000 1.000000
vt 0.375000 1.000000
vt 0.875000 0.000000
vt 0.875000 0.250000
vt 0.125000 0.000000
vt 0.125000 0.250000
vt 0.375000 0.312500
vt 0.406250 0.312500
vt 0.406250 0.688440
vt 0.375000 0.688440
vt 0.437500 0.312500
vt 0.437500 0.688440
vt 0.468750 0.312500
vt 0.468750 0.688440
vt 0.500000 0.312500
vt 0.500000 0.688440
vt 0.531250 0.312500
vt 0.531250 0.688440
vt 0.562500 0.312500
vt 0.562500 0.688440
vt 0.593750 0.312500
vt 0.593750 0.688440
vt 0.625000 0.312500
vt 0.625000 0.688440
vt 0.500000 0.000000
vt 0.610485 0.045765
vt 0.500000 0.150000
vt 0.389515 0.045765
vt 0.343750 0.156250
vt 0.389515 0.266735
vt 0.500000 0.312500
vt 0.610485 0.266735
vt 0.656250 0.156250
vt 0.610485 0.954235
vt 0.500000 1.000000
vt 0.500000 0.837500
vt 0.389515 0.954235
vt 0.343750 0.843750
vt 0.389515 0.733265
vt 0.500000 0.687500
vt 0.610485 0.733265
vt 0.656250 0.843750
vt 0.375000 0.000000
vt 0.625000 0.000000
vt 0.625000 0.250000
vt 0.375000 0.250000
vt 0.625000 0.500000
vt 0.375000 0.500000
vt 0.625000 0.750000
vt 0.375000 0.750000
vt 0.625000 1.000000
vt 0.375000 1.000000
vt 0.875000 0.000000
vt 0.875000 0.250000
vt 0.125000 0.000000
vt 0.125000 0.250000
vt 0.375000 0.000000
vt 0.625000 0.000000
vt 0.625000 0.250000
vt 0.375000 0.250000
vt 0.625000 0.464889
vt 0.839889 0.000000
vt 0.839889 0.250000
vt 0.160111 0.250000
vt 0.160111 0.000000
vt 0.625000 1.000000
vt 0.375000 1.000000
vt 0.375000 0.785110
vt 0.375000 0.464890
vt 0.437506 0.482447
vt 0.562494 0.767554
vt 0.625000 0.785111
vt 0.562494 0.482447
vt 0.437506 0.767553
vn 0.736021 0.000000 0.676959
vn 0.736021 0.000000 0.676959
vn 0.736021 0.000000 0.676959
vn 0.736021 0.000000 0.676959
vn 0.000000 1.000000 0.000000
vn 0.000000 1.000000 0.000000
vn 0.000000 1.000000 0.000000
vn 0.000000 1.000000 0.000000
vn -0.736021 0.000000 -0.676959
vn -0.736021 0.000000 -0.676959
vn -0.736021 0.000000 -0.676959
vn -0.736021 0.000000 -0.676959
vn 0.000000 -1.000000 0.000000
vn 0.000000 -1.000000 0.000000
vn 0.000000 -1.000000 0.000000
vn 0.000000 -1.000000 0.000000
vn 0.736021 0.000000 -0.676959
vn 0.736021 0.000000 -0.676959
vn 0.736021 0.000000 -0.676959
vn 0.736021 0.000000 -0.676959
vn -0.736021 0.000000 0.676959
vn -0.736021 0.000000 0.676959
vn -0.736021 0.000000 0.676959
vn -0.736021 0.000000 0.676959
vn 0.736021 0.000000 -0.676959
vn 0.736021 0.000000 -0.676959
vn 0.736021 0.000000 -0.676959
vn 0.736021 0.000000 -0.676959
vn 0.000000 1.000000 0.000000
vn 0.000000 1.000000 0.000000
vn 0.000000 1.000000 0.000000
vn 0.000000 1.000000 0.000000
vn -0.736021 0.000000 0.676959
vn -0.736021 0.000000 0.676959
vn -0.736021 0.000000 0.676959
vn -0.736021 0.000000 0.676959
vn 0.000000 -1.000000 0.000000
vn 0.000000 -1.000000 0.000000
vn 0.000000 -1.000000 0.000000
vn 0.000000 -1.000000 0.000000
vn -0.736021 0.000000 -0.676959
vn -0.736021 0.000000 -0.676959
vn -0.736021 0.000000 -0.676959
vn -0.736021 0.000000 -0.676959
vn 0.736021 0.000000 0.676959
vn 0.736021 0.000000 0.676959
vn 0.736021 0.000000 0.676959
vn 0.736021 0.000000 0.676959
vn -0.736021 0.000000 -0.676959
vn -0.736021 0.000000 -0.676959
vn -0.736021 0.000000 -0.676959
vn -0.736021 0.000000 -0.676959
vn 0.000000 1.000000 0.000000
vn 0.000000 1.000000 0.000000
vn 0.000000 1.000000 0.000000
vn 0.000000 1.000000 0.000000
vn 0.736021 0.000000 0.676959
vn 0.736021 0.000000 0.676959
vn 0.736021 0.000000 0.676959
vn 0.736021 0.000000 0.676959
vn 0.000000 -1.000000 0.000000
vn 0.000000 -1.000000 0.000000
vn 0.000000 -1.000000 0.000000
vn 0.000000 -1.000000 0.000000
vn -0.736021 0.000000 0.676959
vn -0.736021 0.000000 0.676959
vn -0.736021 0.000000 0.676959
vn -0.736021 0.000000 0.676959
vn 0.736021 0.000000 -0.676959
vn 0.736021 0.000000 -0.676959
vn 0.736021 0.000000 -0.676959
vn 0.736021 0.000000 -0.676959
vn 0.410631 0.000000 -0.911801
vn 0.410631 0.000000 -0.911801
vn 0.410631 0.000000 -0.911801
vn 0.410631 0.000000 -0.911801
vn -0.410631 0.000000 -0.911801
vn -0.410631 0.000000 -0.911801
vn -0.410631 0.000000 -0.911801
vn -0.410631 0.000000 -0.911801
vn -0.934481 0.000000 -0.356014
vn -0.934481 0.000000 -0.356014
vn -0.934481 0.000000 -0.356014
vn -0.934481 0.000000 -0.356014
vn -0.934481 0.000000 0.356014
vn -0.934481 0.000000 0.356014
vn -0.934481 0.000000 0.356014
vn -0.934481 0.000000 0.356014
vn -0.410632 0.000000 0.911801
vn -0.410632 0.000000 0.911801
vn -0.410632 0.000000 0.911801
vn -0.410632 0.000000 0.911801
vn 0.410632 0.000000 0.911801
vn 0.410632 0.000000 0.911801
vn 0.410632 0.000000 0.911801
vn 0.410632 0.000000 0.911801
vn 0.934481 0.000000 0.356014
vn 0.934481 0.000000 0.356014
vn 0.934481 0.000000 0.356014
vn 0.934481 0.000000 0.356014
vn 0.934481 0.000000 -0.356014
vn 0.934481 0.000000 -0.356014
vn 0.934481 0.000000 -0.356014
vn 0.934481 0.000000 -0.356014
vn 0.000000 -1.000000 0.000000
vn 0.000000 -1.000000 0.000000
vn 0.000000 -1.000000 0.000000
vn 0.000000 -1.000000 0.000000
vn 0.000000 -1.000000 -0.000000
vn 0.000000 -1.000000 -0.000000
vn 0.000000 -1.000000 0.000000
vn 0.000000 -1.000000 0.000000
vn 0.000000 -1.000000 0.000000
vn 0.000000 1.000000 0.000000
vn 0.000000 1.000000 0.000000
vn 0.000000 1.000000 0.000000
vn 0.000000 1.000000 0.000000
vn 0.000000 1.000000 0.000000
vn 0.000000 1.000000 0.000000
vn 0.000000 1.000000 0.000000
vn 0.000000 1.000000 -0.000000
vn 0.000000 1.000000 -0.000000
vn -0.736021 0.000000 0.676959
vn -0.736021 0.000000 0.676959
vn -0.736021 0.000000 0.676959
vn -0.736021 0.000000 0.676959
vn 0.000000 1.000000 0.000000
vn 0.000000 1.000000 0.000000
vn 0.000000 1.000000 0.000000
vn 0.000000 1.000000 0.000000
vn 0.736021 0.000000 -0.676959
vn 0.736021 0.000000 -0.676959
vn 0.736021 0.000000 -0.676959
vn 0.736021 0.000000 -0.676959
vn 0.000000 -1.000000 0.000000
vn 0.000000 -1.000000 0.000000
vn 0.000000 -1.000000 0.000000
vn 0.000000 -1.000000 0.000000
vn 0.736021 0.000000 0.676959
vn 0.736021 0.000000 0.676959
vn 0.736021 0.000000 0.676959
vn 0.736021 0.000000 0.676959
vn -0.736021 0.000000 -0.676959
vn -0.736021 0.000000 -0.676959
vn -0.736021 0.000000 -0.676959
vn -0.736021 0.000000 -0.676959
vn 0.000000 0.000000 1.000000
vn 0.000000 0.000000 1.000000
vn 0.000000 0.000000 1.000000
vn 0.000000 0.000000 1.000000
vn 0.000000 1.000000 -0.000000
vn 0.000000 1.000000 -0.000000
vn 0.000000 1.000000 -0.000000
vn 0.000000 1.000000 -0.000000
vn 1.000000 0.000000 0.000000
vn 1.000000 0.000000 0.000000
vn 1.000000 0.000000 0.000000
vn 1.000000 0.000000 0.000000
vn -1.000000 0.000000 0.000000
vn -1.000000 0.000000 0.000000
vn -1.000000 0.000000 0.000000
vn -1.000000 0.000000 0.000000
vn 0.000000 -1.000000 0.000000
vn 0.000000 -1.000000 0.000000
vn 0.000000 -1.000000 0.000000
vn 0.000000 -1.000000 0.000000
vn -0.735987 0.000000 -0.676996
vn -0.735987 0.000000 -0.676996
vn -0.735987 0.000000 -0.676996
vn -0.735987 0.000000 -0.676996
vn 0.735987 0.000000 -0.676996
vn 0.735987 0.000000 -0.676996
vn 0.735987 0.000000 -0.676996
vn 0.735987 0.000000 -0.676996
vn 0.000000 1.000000 0.000000
vn 0.000000 1.000000 0.000000
vn 0.000000 -1.000000 0.000000
vn 0.000000 -1.000000 0.000000
vn 0.000000 0.000000 -1.000000
vn 0.000000 0.000000 -1.000000
vn 0.000000 0.000000 -1.000000
vn 0.000000 0.000000 -1.000000
s off
g Ranged_enemy
usemtl initialShadingGroup
f 1/1/1 2/2/2 4/4/3 3/3/4
f 3/3/5 4/4/6 6/6/7 5/5/8
f 5/5/9 6/6/10 8/8/11 7/7/12
f 7/7/13 8/8/14 2/10/15 1/9/16
f 2/2/17 8/11/18 6/12/19 4/4/20
f 7/13/21 1/1/22 3/3/23 5/14/24
f 9/15/25 10/16/26 12/17/27 11/18/28
f 11/18/29 12/17/30 14/19/31 13/20/32
f 13/20/33 14/19/34 16/21/35 15/22/36
f 15/22/37 16/21/38 10/23/39 9/24/40
f 10/16/41 16/25/42 14/26/43 12/17/44
f 15/27/45 9/15/46 11/18/47 13/28/48
f 17/29/49 18/30/50 20/31/51 19/32/52
f 19/32/53 20/31/54 22/33/55 21/34/56
f 21/34/57 22/33/58 24/35/59 23/36/60
f 23/36/61 24/35/62 18/37/63 17/38/64
f 18/30/65 24/39/66 22/40/67 20/31/68
f 23/41/69 17/29/70 19/32/71 21/42/72
f 25/43/73 26/44/74 34/45/75 33/46/76
f 26/44/77 27/47/78 35/48/79 34/45/80
f 27/47/81 28/49/82 36/50/83 35/48/84
f 28/49/85 29/51/86 37/52/87 36/50/88
f 29/51/89 30/53/90 38/54/91 37/52/92
f 30/53/93 31/55/94 39/56/95 38/54/96
f 31/55/97 32/57/98 40/58/99 39/56/100
f 32/57/101 25/59/102 33/60/103 40/58/104
s 1
f 26/61/105 25/62/106 41/63/107
f 27/64/108 26/61/105 41/63/107
f 28/65/109 27/64/108 41/63/107
f 29/66/110 28/65/109 41/63/107
f 30/67/111 29/66/110 41/63/107
f 31/68/112 30/67/111 41/63/107
f 32/69/113 31/68/112 41/63/107
f 25/62/106 32/69/113 41/63/107
s 2
f 33/70/114 34/71/115 42/72/116
f 34/71/115 35/73/117 42/72/116
f 35/73/117 36/74/118 42/72/116
f 36/74/118 37/75/119 42/72/116
f 37/75/119 38/76/120 42/72/116
f 38/76/120 39/77/121 42/72/116
f 39/77/121 40/78/122 42/72/116
f 40/78/122 33/70/114 42/72/116
s off
f 43/79/123 44/80/124 46/81/125 45/82/126
f 45/82/127 46/81/128 48/83/129 47/84/130
f 47/84/131 48/83/132 50/85/133 49/86/134
f 49/86/135 50/85/136 44/87/137 43/88/138
f 44/80/139 50/89/140 48/90/141 46/81/142
f 49/91/143 43/79/144 45/82/145 47/92/146
f 51/93/147 52/94/148 54/95/149 53/96/150
s 3
f 55/105/151 57/97/152 60/109/153 59/106/154
s off
f 52/94/155 58/98/156 57/99/157 54/95/158
f 55/100/159 56/101/160 51/93/161 53/96/162
s 4
f 56/104/163 58/108/164 52/102/165 51/103/166
s off
f 55/105/167 59/106/168 62/110/169 56/104/170
f 61/107/171 60/109/172 57/97/173 58/108/174
s 3
f 53/96/175 54/95/176 57/97/152 55/105/151
s 4
f 56/104/163 62/110/177 61/107/178 58/108/164
s off
f 59/106/179 60/109/180 61/107/181 62/110/182
