# This file uses centimeters as units for non-parametric coordinates.

mtllib Enemy melee.mtl
g default
v -0.899550 -0.468201 1.244885
v 0.899550 -0.468201 1.244885
v -0.899550 0.468201 1.244885
v 0.899550 0.468201 1.244885
v -0.418942 0.468201 -1.244885
v 0.418942 0.468201 -1.244885
v -0.418942 -0.468201 -1.244885
v 0.418942 -0.468201 -1.244885
v -0.899550 0.468201 -0.449662
v -0.899550 -0.468201 -0.449662
v 0.899550 -0.468201 -0.449662
v 0.899550 0.468201 -0.449662
v 0.000000 0.468201 -0.644200
v 0.000000 -0.468201 -0.644200
vt 0.375000 0.000000
vt 0.625000 0.000000
vt 0.375000 0.250000
vt 0.625000 0.250000
vt 0.375000 0.500000
vt 0.625000 0.500000
vt 0.375000 0.750000
vt 0.625000 0.750000
vt 0.375000 1.000000
vt 0.625000 1.000000
vt 0.875000 0.000000
vt 0.875000 0.250000
vt 0.125000 0.000000
vt 0.125000 0.250000
vt 0.187500 0.250000
vt 0.375000 0.437500
vt 0.187500 0.000000
vt 0.375000 0.812500
vt 0.625000 0.812500
vt 0.812500 0.000000
vt 0.625000 0.437500
vt 0.812500 0.250000
vt 0.500000 0.500000
vt 0.500000 0.750000
vn 0.000000 0.000000 1.000000
vn 0.000000 0.000000 1.000000
vn 0.000000 0.000000 1.000000
vn 0.000000 0.000000 1.000000
vn 0.000000 1.000000 0.000000
vn 0.000000 1.000000 0.000000
vn 0.000000 1.000000 0.000000
vn 0.000000 1.000000 0.000000
vn 0.820217 0.000000 -0.572052
vn 0.000000 0.000000 -1.000000
vn 0.000000 0.000000 -1.000000
vn 0.820217 0.000000 -0.572052
vn 0.000000 -1.000000 0.000000
vn 0.000000 -1.000000 0.000000
vn 0.000000 -1.000000 0.000000
vn 0.000000 -1.000000 0.000000
vn 1.000000 0.000000 0.000000
vn 1.000000 0.000000 0.000000
vn 0.981874 0.000000 -0.189534
vn 0.981874 0.000000 -0.189534
vn -1.000000 0.000000 0.000000
vn -1.000000 0.000000 0.000000
vn -0.981874 0.000000 -0.189534
vn -0.981874 0.000000 -0.189534
vn -0.855839 0.000000 -0.517242
vn -0.855839 0.000000 -0.517242
vn 0.000000 -1.000000 0.000000
vn 0.000000 -1.000000 0.000000
vn 0.855839 0.000000 -0.517242
vn 0.855839 0.000000 -0.517242
vn 0.000000 1.000000 0.000000
vn 0.000000 1.000000 0.000000
vn -0.820217 0.000000 -0.572052
vn -0.820217 0.000000 -0.572052
vn 0.000000 1.000000 0.000000
vn 0.000000 -1.000000 0.000000
s off
g Melee_enemy
usemtl initialShadingGroup
f 1/1/1 2/2/2 4/4/3 3/3/4
s 1
f 9/16/5 3/3/6 4/4/7 12/21/8
s 2
f 5/5/9 13/23/10 14/24/11 7/7/12
s 3
f 2/10/13 1/9/14 10/18/15 11/19/16
s 4
f 4/4/17 2/2/18 11/20/19 12/22/20
s 5
f 1/1/21 3/3/22 9/15/23 10/17/24
f 7/13/25 10/17/24 9/15/23 5/14/26
s 3
f 7/7/27 14/24/28 10/18/15
s 4
f 12/22/20 11/20/19 8/11/29 6/12/30
s 1
f 13/23/31 12/21/8 6/6/32
s 2
f 14/24/11 13/23/10 6/6/33 8/8/34
s 1
f 9/16/5 12/21/8 13/23/31
f 9/16/5 13/23/31 5/5/35
s 3
f 11/19/16 14/24/28 8/8/36
f 10/18/15 14/24/28 11/19/16
